:SAMPLES-PER-SECOND 30
:FULLY-SPECIFIED
:DEGREES
599
root  -2.4341 38.8466 12.7736 -177.761 -40.1851 174.554
RightUpLeg  1.8921 -15.7727 -19.7932
RightLeg  24.3534 -12.4913 -6.34079
RightFoot  -8.14777 -0.620025 19.9451
RightToes  -1.33073e-015 0 -3.6325e-017
Spine  7.40102 -9.61302 10.639
Spine1  19.2989 -13.3167 8.67172
HEad  8.17451 -14.7116 -6.84034
LeftShoulder1  6.01933 -16.2934 -24.1568
LeftArm  23.232 -55.0649 -103.842
LeftForeArm  64.5462 5.27774 -2.06065
LeftHand  -0.246645 0.021 5.37786
RightShoulder  8.34457 16.8352 35.024
RightArm  -35.738 23.8051 50.3045
RightForeArm  -6.64576 45.3937 11.7687
RightHand  -0.24729 -0.0210522 -5.37781
LeftUpLeg  -17.284 4.42131 -1.58162
LeftLeg  23.6429 -27.2588 -12.1151
LeftFoot  -0.962136 0.386227 -4.17612
LeftToes  5.09284e-011 3.02203e-011 3.83118e-011
600
root  -2.35207 39.0173 12.7041 -177.913 -45.8962 172.449
RightUpLeg  3.68004 -12.7082 -20.346
RightLeg  28.3919 -16.7795 -9.84258
RightFoot  -5.33112 -1.17509 21.4755
RightToes  -1.33073e-015 0 -3.6325e-017
Spine  3.56245 -6.19603 16.2005
Spine1  20.014 -8.75437 5.55095
HEad  11.9213 -26.5977 -6.00744
LeftShoulder1  6.15488 -16.3863 -24.7203
LeftArm  12.7814 -51.9436 -90.2137
LeftForeArm  33.5991 6.4816 -3.75867
LeftHand  -0.246645 0.021 5.37786
RightShoulder  7.86023 16.6014 33.1012
RightArm  -14.299 38.8557 51.9278
RightForeArm  -24.1496 19.3711 7.36421
RightHand  -0.24729 -0.0210522 -5.37781
LeftUpLeg  -13.9454 4.32506 -3.42282
LeftLeg  20.4296 -32.2552 -12.2213
LeftFoot  1.42314 0.442787 -4.03597
LeftToes  5.09284e-011 3.02203e-011 3.83118e-011
601
root  -2.33783 39.1096 12.5947 -177.161 -48.0462 170.191
RightUpLeg  2.09093 -7.20703 -19.97
RightLeg  34.7369 -19.8215 -14.4033
RightFoot  -1.9167 -1.7127 20.4601
RightToes  -1.33073e-015 0 -3.6325e-017
Spine  3.71646 -1.16876 22.3039
Spine1  17.4606 -1.95397 2.70927
HEad  14.1667 -37.8283 -6.74538
LeftShoulder1  6.37469 -16.313 -25.998
LeftArm  8.20523 -45.3399 -79.246
LeftForeArm  -9.96247 6.17154 -9.66784
LeftHand  -0.246645 0.021 5.37786
RightShoulder  6.94085 15.9946 29.5777
RightArm  18.4805 53.962 61.0888
RightForeArm  -14.9934 4.46825 15.3223
RightHand  -0.24729 -0.0210522 -5.37781
LeftUpLeg  -11.5985 4.39761 -4.85618
LeftLeg  17.8304 -34.2519 -11.5959
LeftFoot  2.78788 0.468167 -3.91451
LeftToes  5.09284e-011 3.02203e-011 3.83118e-011
602
root  -2.54149 39.1406 12.4458 -175.623 -51.4785 167.671
RightUpLeg  1.03518 -3.85523 -19.9579
RightLeg  40.5511 -20.9536 -18.368
RightFoot  2.21259 -1.97308 16.6766
RightToes  -1.33073e-015 0 -3.6325e-017
Spine  6.35436 3.45151 30.2184
Spine1  12.2774 5.63731 -2.54621
HEad  13.7969 -49.6604 -6.03928
LeftShoulder1  6.91316 -16.2552 -28.9048
LeftArm  8.0534 -39.4846 -72.3699
LeftForeArm  -39.8303 -4.50014 -12.0459
LeftHand  -0.246645 0.021 5.37786
RightShoulder  6.04221 15.2696 26.0833
RightArm  63.1417 64.1237 78.0409
RightForeArm  9.00205 6.6767 17.6775
RightHand  -0.24729 -0.0210522 -5.37781
LeftUpLeg  -9.93869 3.6941 -6.39195
LeftLeg  16.3961 -36.5757 -11.7178
LeftFoot  3.77491 0.538513 -4.22641
LeftToes  5.09284e-011 3.02203e-011 3.83118e-011
603
root  -2.98113 39.1591 12.2629 -171.967 -58.694 163.562
RightUpLeg  1.90362 -3.23404 -20.2028
RightLeg  44.6563 -20.5567 -20.6217
RightFoot  7.45274 -1.71732 10.7366
RightToes  -1.33073e-015 0 -3.6325e-017
Spine  7.3869 6.4207 37.49
Spine1  7.32225 11.111 -9.78643
HEad  10.4762 -59.4388 -2.12854
LeftShoulder1  7.4623 -16.3352 -31.5753
LeftArm  10.1261 -37.8146 -66.1452
LeftForeArm  -53.3018 -22.5548 -8.78868
LeftHand  -0.246645 0.021 5.37786
RightShoulder  5.34205 14.538 23.3792
RightArm  90.5803 63.795 106.67
RightForeArm  27.4144 5.71879 17.521
RightHand  -0.24729 -0.0210522 -5.37781
LeftUpLeg  -8.47738 1.93884 -8.43047
LeftLeg  15.6063 -41.331 -12.555
LeftFoot  4.91527 0.730523 -5.31759
LeftToes  5.09284e-011 3.02203e-011 3.83118e-011
604
root  -3.53375 39.1735 12.0571 -163.804 -67.4032 155.714
RightUpLeg  3.16186 -2.75353 -19.8398
RightLeg  47.4101 -18.9456 -20.9932
RightFoot  14.0358 -0.851655 4.24381
RightToes  -1.33073e-015 0 -3.6325e-017
Spine  5.3704 9.14919 40.9503
Spine1  4.29111 14.0943 -14.8267
HEad  5.86091 -64.2143 2.65064
LeftShoulder1  7.59133 -16.5411 -31.8316
LeftArm  -6.90658 -39.4705 -58.9036
LeftForeArm  -37.0549 -32.9772 -8.75355
LeftHand  -0.246645 0.021 5.37786
RightShoulder  4.48032 13.4046 20.0541
RightArm  109.989 63.4923 134.768
RightForeArm  43.4428 5.60825 16.9282
RightHand  -0.24729 -0.0210522 -5.37781
LeftUpLeg  -7.44818 -0.45215 -10.6537
LeftLeg  15.3237 -47.1655 -13.7027
LeftFoot  6.04273 0.946964 -6.43528
LeftToes  5.09284e-011 3.02203e-011 3.83118e-011
605
root  -4.08382 39.1897 11.8852 -149.414 -74.4259 142.404
RightUpLeg  3.38481 -0.945994 -18.4173
RightLeg  49.0817 -16.3891 -19.5308
RightFoot  21.6993 0.121894 0.0614874
RightToes  -1.33073e-015 0 -3.6325e-017
Spine  3.23423 12.484 41.2245
Spine1  1.2785 16.4062 -16.6749
HEad  3.26121 -64.8279 3.9564
LeftShoulder1  7.46898 -16.7173 -30.8844
LeftArm  -22.9365 -40.3006 -51.0454
LeftForeArm  -20.1282 -41.1442 -10.9567
LeftHand  -0.246645 0.021 5.37786
RightShoulder  3.5791 11.9569 16.4756
RightArm  128.41 58.8072 151.213
RightForeArm  44.3024 10.6987 14.6433
RightHand  -0.24729 -0.0210522 -5.37781
LeftUpLeg  -7.17102 -2.70642 -12.4051
LeftLeg  15.8127 -52.3834 -15.0727
LeftFoot  6.91038 1.05314 -6.81661
LeftToes  5.09284e-011 3.02203e-011 3.83118e-011
606
root  -4.60117 39.2306 11.8115 -125.839 -79.3205 120.105
RightUpLeg  3.34 1.03823 -16.3842
RightLeg  49.2597 -13.0336 -16.0091
RightFoot  29.9078 0.281432 -0.227834
RightToes  -1.33073e-015 0 -3.6325e-017
Spine  2.52619 15.727 41.2376
Spine1  -2.95329 18.687 -18.2836
HEad  3.01237 -64.4202 2.35334
LeftShoulder1  7.45558 -16.6909 -30.8682
LeftArm  -33.2167 -39.2592 -42.1907
LeftForeArm  -10.9536 -49.2486 -13.8244
LeftHand  -0.246645 0.021 5.37786
RightShoulder  3.12248 10.9929 14.7222
RightArm  142.287 54.7842 158.636
RightForeArm  35.8326 16.6926 10.2854
RightHand  -0.24729 -0.0210522 -5.37781
LeftUpLeg  -7.13978 -4.2221 -13.2467
LeftLeg  17.2727 -57.4272 -17.0525
LeftFoot  7.63163 1.15384 -7.17598
LeftToes  5.09284e-011 3.02203e-011 3.83118e-011
607
root  -5.06948 39.2715 11.8286 -86.703 -81.5798 81.8438
RightUpLeg  4.23603 2.14968 -14.2079
RightLeg  47.8298 -8.73469 -10.5359
RightFoot  37.4208 -0.76863 2.28127
RightToes  -1.33073e-015 0 -3.6325e-017
Spine  1.71948 18.3376 42.2035
Spine1  -6.14946 20.6116 -21.359
HEad  3.57353 -64.8282 1.14877
LeftShoulder1  7.33729 -16.3435 -30.9218
LeftArm  -39.5917 -38.5378 -33.392
LeftForeArm  -2.63384 -55.8924 -17.0058
LeftHand  -0.246645 0.021 5.37786
RightShoulder  2.97432 10.5389 14.3156
RightArm  149.211 52.1468 161.896
RightForeArm  30.6186 21.8299 5.13795
RightHand  -0.24729 -0.0210522 -5.37781
LeftUpLeg  -6.89032 -4.51883 -13.3248
LeftLeg  20.8588 -63.3434 -21.178
LeftFoot  8.32851 1.43714 -8.56909
LeftToes  5.09284e-011 3.02203e-011 3.83118e-011
608
root  -5.45781 39.2584 11.8753 -46.5477 -79.2122 42.2341
RightUpLeg  5.88541 3.06424 -12.0492
RightLeg  45.637 -3.47079 -4.12803
RightFoot  42.5606 -2.83781 6.20658
RightToes  -1.33073e-015 0 -3.6325e-017
Spine  -0.138228 20.5098 42.5199
Spine1  -7.12996 22.0607 -23.9927
HEad  5.06777 -65.6012 0.121865
LeftShoulder1  6.91444 -15.7358 -29.8801
LeftArm  -45.3025 -38.255 -26.1749
LeftForeArm  6.42726 -60.5408 -19.8195
LeftHand  -0.246645 0.021 5.37786
RightShoulder  2.68125 9.89734 13.015
RightArm  147.351 50.6533 165.483
RightForeArm  34.8948 25.7091 3.44228
RightHand  -0.24729 -0.0210522 -5.37781
LeftUpLeg  -6.76538 -4.03246 -13.2375
LeftLeg  28.3043 -69.1366 -29.197
LeftFoot  8.91792 1.8513 -10.6452
LeftToes  5.09284e-011 3.02203e-011 3.83118e-011
